<?xml version="1.0" encoding="UTF-8" standalone="no"?>
<svg width="995px" height="190px" viewBox="0 0 995 190" version="1.1" xmlns="http://www.w3.org/2000/svg" xmlns:xlink="http://www.w3.org/1999/xlink" xmlns:sketch="http://www.bohemiancoding.com/sketch/ns">
    <!-- Generator: Sketch 3.3.3 (12072) - http://www.bohemiancoding.com/sketch -->
    <title>Slice 1</title>
    <desc>Created with Sketch.</desc>
    <defs></defs>
    <g id="Page-1" stroke="none" stroke-width="1" fill="none" fill-rule="evenodd" sketch:type="MSPage">
        <g id="sortvest-logo-on-slide" sketch:type="MSLayerGroup">
            <g id="Group" transform="translate(0.256410, 0.000000)" sketch:type="MSShapeGroup">
                <path d="M35.1858846,128.044119 C26.4214368,123.30903 20.3640335,119.263821 17.0108281,115.908493 C11.7504515,110.640313 9.12310978,104.305955 9.12310978,96.9025672 C9.12310978,89.422209 11.7504515,83.0308358 17.0108281,77.725597 C22.2683581,72.423209 28.5933347,69.7691642 35.9857578,69.7691642 C43.4550371,69.7691642 49.6291479,72.2122537 54.5052437,77.0955821 C59.2304738,81.904791 61.5930888,87.3639701 61.5930888,93.4674179 L61.5930888,94.0404179 L52.6749287,97.589597 C51.9149068,91.7883284 50.1045174,87.4380896 47.2466072,84.5388806 C44.388697,81.6368209 40.6341317,80.185791 35.9857578,80.185791 C31.4142401,80.185791 27.4888834,81.8107164 24.2125341,85.0520149 C20.9333383,88.2990149 19.296587,92.2472985 19.296587,96.9025672 C19.296587,101.480866 20.9333383,105.412045 24.2125341,108.693254 C26.1168587,110.600403 30.1560765,113.502463 36.3301873,117.393731 C46.0823789,122.738881 53.0193581,127.468269 57.135432,131.593299 C63.6112744,138.155716 66.8506188,145.981015 66.8506188,155.060642 C66.8506188,164.37403 63.6112744,172.290552 57.135432,178.81591 C50.6567431,185.341269 42.8060296,188.605373 33.586138,188.605373 C24.3633999,188.605373 16.5126864,185.341269 10.036844,178.81591 C3.55815514,172.290552 0.318810701,165.135179 0.318810701,157.349791 L10.4951344,154.715701 C10.4951344,161.43206 12.7609676,167.042328 17.2954805,171.546507 C21.8299934,176.050687 27.2583149,178.299925 33.586138,178.299925 C39.9111146,178.299925 45.3394361,176.050687 49.873949,171.546507 C54.4084619,167.042328 56.6771416,161.54609 56.6771416,155.060642 C56.6771416,148.726284 54.4283876,143.307015 49.933726,138.802836 C47.4942548,136.359746 42.5783077,132.776358 35.1858846,128.044119" id="Fill-1" fill="#000105"></path>
                <path d="M115.20737,89.4592687 C105.070898,99.6107761 100.004085,111.863284 100.004085,126.21109 C100.004085,140.558896 105.070898,152.788597 115.20737,162.903045 C125.340996,173.017493 137.575357,178.071866 151.901913,178.071866 C166.228469,178.071866 178.459983,173.017493 188.596455,162.903045 C198.732928,152.788597 203.802587,140.558896 203.802587,126.21109 C203.802587,111.863284 198.732928,99.6107761 188.596455,89.4592687 C178.459983,79.3106119 166.228469,74.2334328 151.901913,74.2334328 C137.575357,74.2334328 125.340996,79.3106119 115.20737,89.4592687 L115.20737,89.4592687 L115.20737,89.4592687 Z M151.901913,63.243806 C169.277096,63.243806 184.081868,69.3871642 196.313382,81.6738806 C208.544896,93.9634478 214.662076,108.807284 214.662076,126.21109 C214.662076,143.535075 208.544896,158.341851 196.313382,170.631418 C184.081868,182.920985 169.277096,189.061493 151.901913,189.061493 C134.600739,189.061493 119.815893,182.920985 107.547374,170.631418 C95.2760086,158.341851 89.1417491,143.535075 89.1417491,126.21109 C89.1417491,108.807284 95.2760086,93.9634478 107.547374,81.6738806 C119.815893,69.3871642 134.600739,63.243806 151.901913,63.243806 L151.901913,63.243806 L151.901913,63.243806 Z" id="Fill-2" fill="#000105"></path>
                <path d="M242.096876,73.4323731 L252.384214,73.4323731 L252.384214,93.9263881 C254.519107,90.8732388 256.995583,87.9341194 259.813642,85.1090299 C268.882668,76.0265522 278.182262,71.2572537 287.706732,70.7982836 L287.706732,82.0188209 C281.228043,82.3238507 274.521632,85.95 267.587499,92.8944179 C257.832461,102.589806 252.765648,114.229403 252.384214,127.810358 L252.384214,185.857254 L242.096876,185.857254 L242.096876,73.4323731" id="Fill-3" fill="#000105"></path>
                <path d="M331.147536,73.4323731 L331.147536,25.5797463 L341.437721,25.5797463 L341.437721,73.4323731 L364.298156,73.4323731 L364.298156,83.7378209 L341.437721,83.7378209 L341.437721,185.857254 L331.147536,185.857254 L331.147536,83.7378209 L308.284255,83.7378209 L308.284255,73.4323731 L331.147536,73.4323731" id="Fill-4" fill="#000105"></path>
                <path d="M435.404328,167.082239 L478.614564,73.4323731 L490.501649,73.4323731 L435.404328,188.947463 L380.304161,73.4323731 L392.191246,73.4323731 L435.404328,167.082239" id="Fill-5" fill="#000105"></path>
                <path d="M598.068949,84.5388806 C589.156482,77.6685821 578.789441,74.2334328 566.979213,74.2334328 C552.726666,74.2334328 540.532157,79.2906567 530.395685,89.4022537 C520.262059,99.5167015 515.192399,111.749254 515.192399,126.09706 C515.192399,137.924806 518.622461,148.307224 525.479737,157.235761 L598.068949,84.5388806 L598.068949,84.5388806 Z M532.456568,164.790239 C542.131904,173.647507 553.640401,178.071866 566.979213,178.071866 C581.305768,178.071866 593.537283,172.997537 603.670908,162.84603 C604.966077,161.54609 606.187236,160.21194 607.328692,158.837881 L618.191028,162.729149 C616.209847,165.477269 613.961093,168.111358 611.447612,170.631418 C599.1734,182.920985 584.354396,189.061493 566.979213,189.061493 C549.675192,189.061493 534.893193,182.920985 522.624674,170.631418 C510.353308,158.341851 504.219049,143.495164 504.219049,126.09706 C504.219049,108.770224 510.353308,93.9634478 522.624674,81.6738806 C534.893193,69.3871642 549.675192,63.243806 566.979213,63.243806 C581.838068,63.243806 594.832451,67.7080746 605.959514,76.6394627 C607.789829,78.1646119 609.617297,79.8437015 611.447612,81.6738806 C612.133625,82.3637612 612.776939,83.0479403 613.388942,83.7378209 L532.456568,164.790239 L532.456568,164.790239 Z" id="Fill-6" fill="#000105"></path>
                <path d="M676.490688,128.044119 C667.72624,123.30903 661.665991,119.263821 658.315632,115.908493 C653.058102,110.640313 650.427913,104.305955 650.427913,96.9025672 C650.427913,89.422209 653.058102,83.0308358 658.315632,77.725597 C663.573162,72.423209 669.898138,69.7691642 677.293408,69.7691642 C684.759841,69.7691642 690.933952,72.2122537 695.810047,77.0955821 C700.535277,81.904791 702.897892,87.3639701 702.897892,93.4674179 L702.897892,94.0404179 L693.982579,97.589597 C693.216864,91.7883284 691.409321,87.4380896 688.551411,84.5388806 C685.693501,81.6368209 681.938935,80.185791 677.293408,80.185791 C672.719044,80.185791 668.790841,81.8107164 665.517338,85.0520149 C662.238142,88.2990149 660.601391,92.2472985 660.601391,96.9025672 C660.601391,101.480866 662.238142,105.412045 665.517338,108.693254 C667.421662,110.600403 671.46088,113.502463 677.634991,117.393731 C687.387183,122.738881 694.324162,127.468269 698.437389,131.593299 C704.916078,138.155716 708.155422,145.981015 708.155422,155.060642 C708.155422,164.37403 704.916078,172.290552 698.437389,178.81591 C691.961547,185.341269 684.110833,188.605373 674.890942,188.605373 C665.67105,188.605373 657.820337,185.341269 651.341648,178.81591 C644.862959,172.290552 641.623614,165.135179 641.623614,157.349791 L651.797092,154.715701 C651.797092,161.43206 654.065771,167.042328 658.600284,171.546507 C663.134797,176.050687 668.563119,178.299925 674.890942,178.299925 C681.213072,178.299925 686.647086,176.050687 691.178753,171.546507 C695.713266,167.042328 697.981945,161.54609 697.981945,155.060642 C697.981945,148.726284 695.733191,143.307015 691.23853,138.802836 C688.799059,136.359746 683.883111,132.776358 676.490688,128.044119" id="Fill-7" fill="#000105"></path>
                <path d="M755.026289,73.4323731 L755.026289,25.5797463 L765.313627,25.5797463 L765.313627,73.4323731 L788.179755,73.4323731 L788.179755,83.7378209 L765.313627,83.7378209 L765.313627,185.857254 L755.026289,185.857254 L755.026289,83.7378209 L732.163007,83.7378209 L732.163007,73.4323731 L755.026289,73.4323731" id="Fill-8" fill="#000105"></path>
                <path d="M150.993872,31.8314328 C110.798105,31.8314328 77.9008254,26.178403 75.0685339,19.0144776 C74.9375938,19.482 74.8493516,19.9580746 74.8493516,20.437 C74.8493516,31.2812388 108.939324,42.3364328 150.993872,42.3364328 C193.045572,42.3364328 227.135545,31.2812388 227.135545,20.437 C227.135545,19.9580746 227.047303,19.482 226.916363,19.0144776 C224.084071,26.178403 191.186792,31.8314328 150.993872,31.8314328" id="Fill-9" fill="#379FCD"></path>
                <path d="M220.192873,12.2496567 C208.157769,5.49338806 181.707867,0.801059701 150.993872,0.801059701 C120.27703,0.801059701 93.8271278,5.49338806 81.7891774,12.2496567 C93.8271278,7.49746269 120.27703,4.19344776 150.993872,4.19344776 C181.707867,4.19344776 208.157769,7.49746269 220.192873,12.2496567" id="Fill-10" fill="#286BA6"></path>
            </g>
            <rect id="Rectangle-1" stroke="#379FCD" stroke-width="3" stroke-dasharray="180,90" sketch:type="MSShapeGroup" x="813" y="96" width="180" height="90"></rect>
            <text id="BETA" fill="#222222" sketch:type="MSTextLayer" font-family="Roboto" font-size="60" font-weight="260">
                <tspan x="832" y="162" fill="#000000">BETA</tspan>
            </text>
        </g>
    </g>
</svg>