<?xml version="1.0" encoding="UTF-8" standalone="no"?>
<svg width="277px" height="67px" viewBox="0 0 277 67" version="1.1" xmlns="http://www.w3.org/2000/svg" xmlns:xlink="http://www.w3.org/1999/xlink" xmlns:sketch="http://www.bohemiancoding.com/sketch/ns">
    <!-- Generator: Sketch 3.3.3 (12072) - http://www.bohemiancoding.com/sketch -->
    <title>Artboard</title>
    <desc>Created with Sketch.</desc>
    <defs></defs>
    <g id="Page-1" stroke="none" stroke-width="1" fill="none" fill-rule="evenodd" sketch:type="MSPage">
        <g id="Artboard" sketch:type="MSArtboardGroup">
            <g id="sortvest-logo-on-slide" sketch:type="MSLayerGroup">
                <path d="M12.361,44.916 C9.282,43.255 7.154,41.836 5.976,40.659 C4.128,38.811 3.205,36.589 3.205,33.992 C3.205,31.368 4.128,29.126 5.976,27.265 C7.823,25.405 10.045,24.474 12.642,24.474 C15.266,24.474 17.435,25.331 19.148,27.044 C20.808,28.731 21.638,30.646 21.638,32.787 L21.638,32.988 L18.505,34.233 C18.238,32.198 17.602,30.672 16.598,29.655 C15.594,28.637 14.275,28.128 12.642,28.128 C11.036,28.128 9.657,28.698 8.506,29.835 C7.354,30.974 6.779,32.359 6.779,33.992 C6.779,35.598 7.354,36.977 8.506,38.128 C9.175,38.797 10.594,39.815 12.763,41.18 C16.189,43.055 18.626,44.714 20.072,46.161 C22.347,48.463 23.485,51.208 23.485,54.393 C23.485,57.66 22.347,60.437 20.072,62.726 C17.796,65.015 15.038,66.16 11.799,66.16 C8.559,66.16 5.801,65.015 3.526,62.726 C1.25,60.437 0.112,57.927 0.112,55.196 L3.687,54.272 C3.687,56.628 4.483,58.596 6.076,60.176 C7.669,61.756 9.576,62.545 11.799,62.545 C14.021,62.545 15.928,61.756 17.521,60.176 C19.114,58.596 19.911,56.668 19.911,54.393 C19.911,52.171 19.121,50.27 17.542,48.69 C16.685,47.833 14.958,46.576 12.361,44.916" id="Fill-1" fill="#000105" sketch:type="MSShapeGroup"></path>
                <path d="M40.473,31.381 C36.912,34.942 35.132,39.24 35.132,44.273 C35.132,49.306 36.912,53.596 40.473,57.144 C44.033,60.692 48.331,62.465 53.364,62.465 C58.397,62.465 62.694,60.692 66.255,57.144 C69.816,53.596 71.597,49.306 71.597,44.273 C71.597,39.24 69.816,34.942 66.255,31.381 C62.694,27.821 58.397,26.04 53.364,26.04 C48.331,26.04 44.033,27.821 40.473,31.381 L40.473,31.381 Z M53.364,22.185 C59.468,22.185 64.669,24.34 68.966,28.65 C73.263,32.961 75.412,38.168 75.412,44.273 C75.412,50.35 73.263,55.544 68.966,59.855 C64.669,64.166 59.468,66.32 53.364,66.32 C47.286,66.32 42.092,64.166 37.782,59.855 C33.471,55.544 31.316,50.35 31.316,44.273 C31.316,38.168 33.471,32.961 37.782,28.65 C42.092,24.34 47.286,22.185 53.364,22.185 L53.364,22.185 Z" id="Fill-2" fill="#000105" sketch:type="MSShapeGroup"></path>
                <path d="M85.05,25.759 L88.664,25.759 L88.664,32.948 C89.414,31.877 90.284,30.846 91.274,29.855 C94.46,26.669 97.727,24.996 101.073,24.835 L101.073,28.771 C98.797,28.878 96.441,30.15 94.005,32.586 C90.578,35.987 88.798,40.07 88.664,44.834 L88.664,65.196 L85.05,65.196 L85.05,25.759" id="Fill-3" fill="#000105" sketch:type="MSShapeGroup"></path>
                <path d="M116.334,25.759 L116.334,8.973 L119.949,8.973 L119.949,25.759 L127.98,25.759 L127.98,29.374 L119.949,29.374 L119.949,65.196 L116.334,65.196 L116.334,29.374 L108.302,29.374 L108.302,25.759 L116.334,25.759" id="Fill-4" fill="#000105" sketch:type="MSShapeGroup"></path>
                <path d="M152.96,58.61 L168.14,25.759 L172.316,25.759 L152.96,66.28 L133.603,25.759 L137.779,25.759 L152.96,58.61" id="Fill-5" fill="#000105" sketch:type="MSShapeGroup"></path>
                <path d="M210.105,29.655 C206.974,27.245 203.332,26.04 199.183,26.04 C194.176,26.04 189.892,27.814 186.331,31.361 C182.771,34.909 180.99,39.2 180.99,44.233 C180.99,48.382 182.195,52.024 184.604,55.156 L210.105,29.655 L210.105,29.655 Z M187.055,57.806 C190.454,60.913 194.497,62.465 199.183,62.465 C204.216,62.465 208.513,60.685 212.073,57.124 C212.528,56.668 212.957,56.2 213.358,55.718 L217.174,57.083 C216.478,58.047 215.688,58.971 214.805,59.855 C210.493,64.166 205.287,66.32 199.183,66.32 C193.104,66.32 187.911,64.166 183.601,59.855 C179.29,55.544 177.135,50.336 177.135,44.233 C177.135,38.155 179.29,32.961 183.601,28.65 C187.911,24.34 193.104,22.185 199.183,22.185 C204.403,22.185 208.968,23.751 212.877,26.884 C213.52,27.419 214.162,28.008 214.805,28.65 C215.046,28.892 215.272,29.132 215.487,29.374 L187.055,57.806 L187.055,57.806 Z" id="Fill-6" fill="#000105" sketch:type="MSShapeGroup"></path>
                <path d="M237.655,44.916 C234.576,43.255 232.447,41.836 231.27,40.659 C229.423,38.811 228.499,36.589 228.499,33.992 C228.499,31.368 229.423,29.126 231.27,27.265 C233.117,25.405 235.339,24.474 237.937,24.474 C240.56,24.474 242.729,25.331 244.442,27.044 C246.102,28.731 246.932,30.646 246.932,32.787 L246.932,32.988 L243.8,34.233 C243.531,32.198 242.896,30.672 241.892,29.655 C240.888,28.637 239.569,28.128 237.937,28.128 C236.33,28.128 234.95,28.698 233.8,29.835 C232.648,30.974 232.073,32.359 232.073,33.992 C232.073,35.598 232.648,36.977 233.8,38.128 C234.469,38.797 235.888,39.815 238.057,41.18 C241.483,43.055 243.92,44.714 245.365,46.161 C247.641,48.463 248.779,51.208 248.779,54.393 C248.779,57.66 247.641,60.437 245.365,62.726 C243.09,65.015 240.332,66.16 237.093,66.16 C233.854,66.16 231.096,65.015 228.82,62.726 C226.544,60.437 225.406,57.927 225.406,55.196 L228.98,54.272 C228.98,56.628 229.777,58.596 231.37,60.176 C232.963,61.756 234.87,62.545 237.093,62.545 C239.314,62.545 241.223,61.756 242.815,60.176 C244.408,58.596 245.205,56.668 245.205,54.393 C245.205,52.171 244.415,50.27 242.836,48.69 C241.979,47.833 240.252,46.576 237.655,44.916" id="Fill-7" fill="#000105" sketch:type="MSShapeGroup"></path>
                <path d="M265.245,25.759 L265.245,8.973 L268.859,8.973 L268.859,25.759 L276.892,25.759 L276.892,29.374 L268.859,29.374 L268.859,65.196 L265.245,65.196 L265.245,29.374 L257.213,29.374 L257.213,25.759 L265.245,25.759" id="Fill-8" fill="#000105" sketch:type="MSShapeGroup"></path>
                <path d="M53.045,11.166 C38.924,11.166 27.367,9.183 26.372,6.67 C26.326,6.834 26.295,7.001 26.295,7.169 C26.295,10.973 38.271,14.851 53.045,14.851 C67.818,14.851 79.794,10.973 79.794,7.169 C79.794,7.001 79.763,6.834 79.717,6.67 C78.722,9.183 67.165,11.166 53.045,11.166" id="Fill-9" fill="#379FCD" sketch:type="MSShapeGroup"></path>
                <path d="M77.355,4.297 C73.127,1.927 63.835,0.281 53.045,0.281 C42.254,0.281 32.962,1.927 28.733,4.297 C32.962,2.63 42.254,1.471 53.045,1.471 C63.835,1.471 73.127,2.63 77.355,4.297" id="Fill-10" fill="#286BA6" sketch:type="MSShapeGroup"></path>
            </g>
        </g>
    </g>
</svg>